# Blender v3.0.0 OBJ File: ''
# www.blender.org
mtllib s.mtl
o Cube
v 10.980974 10.980974 -10.980974
v 10.980974 -10.980974 -10.980974
v 10.980974 10.980974 10.980974
v 10.980974 -10.980974 10.980974
v -10.980974 10.980974 -10.980974
v -10.980974 -10.980974 -10.980974
v -10.980974 10.980974 10.980974
v -10.980974 -10.980974 10.980974
vt 0.625000 0.500000
vt 0.875000 0.500000
vt 0.875000 0.750000
vt 0.625000 0.750000
vt 0.375000 0.750000
vt 0.625000 1.000000
vt 0.375000 1.000000
vt 0.375000 0.000000
vt 0.625000 0.000000
vt 0.625000 0.250000
vt 0.375000 0.250000
vt 0.125000 0.500000
vt 0.375000 0.500000
vt 0.125000 0.750000
vn 0.0000 1.0000 0.0000
vn 0.0000 0.0000 1.0000
vn -1.0000 0.0000 0.0000
vn 0.0000 -1.0000 0.0000
vn 1.0000 0.0000 0.0000
vn 0.0000 0.0000 -1.0000
usemtl Material
s off
f 1/1/1 5/2/1 7/3/1 3/4/1
f 4/5/2 3/4/2 7/6/2 8/7/2
f 8/8/3 7/9/3 5/10/3 6/11/3
f 6/12/4 2/13/4 4/5/4 8/14/4
f 2/13/5 1/1/5 3/4/5 4/5/5
f 6/11/6 5/10/6 1/1/6 2/13/6
o å¹³é¢
v -57.950893 0.000000 -10.540472
v 57.950893 0.000000 -10.540472
v -57.950893 0.000000 10.540472
v 57.950893 0.000000 10.540472
vt 0.000000 0.000000
vt 0.000000 1.000000
vt 1.000000 1.000000
vt 1.000000 0.000000
vn 0.0000 1.0000 0.0000
usemtl None
s off
f 9/15/7 11/16/7 12/17/7 10/18/7
o Cube.001
v 7.702842 7.702842 -24.859413
v 7.702842 -7.702842 -24.859413
v 7.702842 7.702842 -9.453731
v 7.702842 -7.702842 -9.453731
v -7.702842 7.702842 -24.859413
v -7.702842 -7.702842 -24.859413
v -7.702842 7.702842 -9.453731
v -7.702842 -7.702842 -9.453731
vt 0.625000 0.500000
vt 0.875000 0.500000
vt 0.875000 0.750000
vt 0.625000 0.750000
vt 0.375000 0.750000
vt 0.625000 1.000000
vt 0.375000 1.000000
vt 0.375000 0.000000
vt 0.625000 0.000000
vt 0.625000 0.250000
vt 0.375000 0.250000
vt 0.125000 0.500000
vt 0.375000 0.500000
vt 0.125000 0.750000
vn 0.0000 1.0000 0.0000
vn 0.0000 0.0000 1.0000
vn -1.0000 0.0000 0.0000
vn 0.0000 -1.0000 0.0000
vn 1.0000 0.0000 0.0000
vn 0.0000 0.0000 -1.0000
usemtl Material.001
s off
f 13/19/8 17/20/8 19/21/8 15/22/8
f 16/23/9 15/22/9 19/24/9 20/25/9
f 20/26/10 19/27/10 17/28/10 18/29/10
f 18/30/11 14/31/11 16/23/11 20/32/11
f 14/31/12 13/19/12 15/22/12 16/23/12
f 18/29/13 17/28/13 13/19/13 14/31/13
o Cube.002
v 12.505638 12.505638 -53.952164
v 12.505638 -12.505638 -53.952164
v 12.505638 12.505638 -18.001144
v 12.505638 -12.505638 -18.001144
v -12.505638 12.505638 -53.952164
v -12.505638 -12.505638 -53.952164
v -12.505638 12.505638 -18.001144
v -12.505638 -12.505638 -18.001144
vt 0.625000 0.500000
vt 0.875000 0.500000
vt 0.875000 0.750000
vt 0.625000 0.750000
vt 0.375000 0.750000
vt 0.625000 1.000000
vt 0.375000 1.000000
vt 0.375000 0.000000
vt 0.625000 0.000000
vt 0.625000 0.250000
vt 0.375000 0.250000
vt 0.125000 0.500000
vt 0.375000 0.500000
vt 0.125000 0.750000
vn 0.0000 1.0000 0.0000
vn 0.0000 0.0000 1.0000
vn -1.0000 0.0000 0.0000
vn 0.0000 -1.0000 0.0000
vn 1.0000 0.0000 0.0000
vn 0.0000 0.0000 -1.0000
usemtl Material.002
s off
f 21/33/14 25/34/14 27/35/14 23/36/14
f 24/37/15 23/36/15 27/38/15 28/39/15
f 28/40/16 27/41/16 25/42/16 26/43/16
f 26/44/17 22/45/17 24/37/17 28/46/17
f 22/45/18 21/33/18 23/36/18 24/37/18
f 26/43/19 25/42/19 21/33/19 22/45/19
